<svg width="1530" height="1610" viewBox="0 0 1530 1610" fill="none" xmlns="http://www.w3.org/2000/svg">
<rect x="198.017" width="1240.23" height="1602.42" rx="100" fill="url(#paint0_radial_176_7)"/>
<rect x="201.632" y="3.42285" width="1233" height="1606" rx="100" fill="url(#paint1_linear_176_7)"/>
<g filter="url(#filter0_d_176_7)">
<path d="M56.1678 793.591C60.2489 791.633 62.2895 790.654 64.2332 790.706C65.9423 790.752 67.5962 791.341 68.958 792.387C70.5065 793.578 71.4932 795.634 73.4668 799.747L83.3344 820.311C85.308 824.424 86.2947 826.48 86.2545 828.433C86.2189 830.15 85.6432 831.809 84.6099 833.171C83.4344 834.72 81.3939 835.699 77.3128 837.657L28.8315 860.921C27.0606 861.771 26.1752 862.195 25.5126 862.057C25.2249 861.998 24.9531 861.877 24.7159 861.702C24.4788 861.527 24.2819 861.303 24.1391 861.045C23.8084 860.449 23.9444 859.471 24.2127 857.517L27.3869 834.508L7.45544 822.586C5.75972 821.575 4.91186 821.069 4.65227 820.434C4.54101 820.162 4.48977 819.868 4.50207 819.575C4.51438 819.281 4.58994 818.994 4.72354 818.733C5.0302 818.13 5.91566 817.705 7.68657 816.855L56.1678 793.591Z" fill="#E05F5F" stroke="#E05F5F" stroke-linecap="round" stroke-linejoin="round"/>
<path d="M302.101 767.993L110.118 794.516" stroke="#E05F5F" stroke-width="50"/>
<path d="M54.8535 821.256L117.293 792.404" stroke="#E05F5F" stroke-width="50"/>
</g>
<g filter="url(#filter1_d_176_7)">
<path d="M1493.16 704.774L1514.64 691.979L1513.26 689.663L1511.42 687.694L1493.16 704.774ZM1461.04 647.641L1485.53 642.627L1461.04 647.641ZM1456.29 628.644L1480.25 621.516L1456.29 628.644ZM1442.98 599.425L1436.24 623.499L1442.98 599.425ZM1437.95 598.015L1444.7 573.942L1444.62 573.92L1444.54 573.898L1437.95 598.015ZM1427.94 595.281L1406.46 608.076L1411.62 616.742L1421.35 619.399L1427.94 595.281ZM1493.22 704.859L1514.69 692.064L1514.64 691.979L1493.16 704.774L1471.69 717.569L1471.74 717.655L1493.22 704.859ZM1493.16 704.774L1511.42 687.694L1498.34 673.717L1480.09 690.797L1461.83 707.876L1474.91 721.853L1493.16 704.774ZM1480.09 690.797L1498.34 673.717C1494.69 669.813 1492.32 666.74 1490.88 664.471C1489.38 662.108 1489.37 661.38 1489.51 662.08L1465.02 667.093L1440.53 672.107C1443.3 685.657 1452.4 697.799 1461.83 707.876L1480.09 690.797ZM1465.02 667.093L1489.51 662.08L1487.52 652.353L1463.03 657.367L1438.54 662.381L1440.53 672.107L1465.02 667.093ZM1463.03 657.367L1487.52 652.353L1485.53 642.627L1461.04 647.641L1436.55 652.654L1438.54 662.381L1463.03 657.367ZM1461.04 647.641L1485.53 642.627C1484.06 635.449 1482.3 628.411 1480.25 621.516L1456.29 628.644L1432.33 635.773C1433.95 641.238 1435.36 646.863 1436.55 652.654L1461.04 647.641ZM1456.29 628.644L1480.25 621.516L1477.49 612.246L1453.53 619.375L1429.57 626.503L1432.33 635.773L1456.29 628.644ZM1453.53 619.375L1477.49 612.246L1474.74 602.977L1450.78 610.105L1426.81 617.234L1429.57 626.503L1453.53 619.375ZM1450.78 610.105L1474.74 602.977C1472.47 595.372 1466.42 580.03 1449.73 575.352L1442.98 599.425L1436.24 623.499C1431.22 622.092 1428.37 619.069 1427.25 617.534C1426.29 616.211 1426.36 615.727 1426.81 617.234L1450.78 610.105ZM1442.98 599.425L1449.73 575.352L1444.7 573.942L1437.95 598.015L1431.21 622.089L1436.24 623.499L1442.98 599.425ZM1437.95 598.015L1444.54 573.898L1434.52 571.164L1427.94 595.281L1421.35 619.399L1431.37 622.133L1437.95 598.015ZM1427.94 595.281L1449.41 582.486L1449.36 582.4L1427.88 595.195L1406.41 607.99L1406.46 608.076L1427.94 595.281Z" fill="#BC2F2F"/>
<line x1="1355.92" y1="753.971" x2="1519.79" y2="716.655" stroke="#E05F5F" stroke-width="50"/>
<line x1="1435.49" y1="597.159" x2="1315.59" y2="561.128" stroke="#E05F5F" stroke-width="50"/>
</g>
<rect x="255.632" y="56.4229" width="1125" height="1499" rx="60" fill="white"/>
<defs>
<filter id="filter0_d_176_7" x="0" y="743.229" width="309.521" height="136.354" filterUnits="userSpaceOnUse" color-interpolation-filters="sRGB">
<feFlood flood-opacity="0" result="BackgroundImageFix"/>
<feColorMatrix in="SourceAlpha" type="matrix" values="0 0 0 0 0 0 0 0 0 0 0 0 0 0 0 0 0 0 127 0" result="hardAlpha"/>
<feOffset dy="13"/>
<feGaussianBlur stdDeviation="2"/>
<feComposite in2="hardAlpha" operator="out"/>
<feColorMatrix type="matrix" values="0 0 0 0 0.365385 0 0 0 0 0.0720229 0 0 0 0 0.0720229 0 0 0 0.25 0"/>
<feBlend mode="multiply" in2="BackgroundImageFix" result="effect1_dropShadow_176_7"/>
<feBlend mode="normal" in="SourceGraphic" in2="effect1_dropShadow_176_7" result="shape"/>
</filter>
<filter id="filter1_d_176_7" x="1304.39" y="537.186" width="224.943" height="257.161" filterUnits="userSpaceOnUse" color-interpolation-filters="sRGB">
<feFlood flood-opacity="0" result="BackgroundImageFix"/>
<feColorMatrix in="SourceAlpha" type="matrix" values="0 0 0 0 0 0 0 0 0 0 0 0 0 0 0 0 0 0 127 0" result="hardAlpha"/>
<feOffset dy="12"/>
<feGaussianBlur stdDeviation="2"/>
<feComposite in2="hardAlpha" operator="out"/>
<feColorMatrix type="matrix" values="0 0 0 0 0.451923 0 0 0 0 0.0434541 0 0 0 0 0.0434541 0 0 0 0.25 0"/>
<feBlend mode="multiply" in2="BackgroundImageFix" result="effect1_dropShadow_176_7"/>
<feBlend mode="normal" in="SourceGraphic" in2="effect1_dropShadow_176_7" result="shape"/>
</filter>
<radialGradient id="paint0_radial_176_7" cx="0" cy="0" r="1" gradientUnits="userSpaceOnUse" gradientTransform="translate(493.357 49.3898) rotate(78.1884) scale(1586.63 1228.01)">
<stop stop-color="#F4E7D5"/>
<stop offset="1" stop-color="#B22727"/>
</radialGradient>
<linearGradient id="paint1_linear_176_7" x1="671.425" y1="-0.281664" x2="857.976" y2="1030.44" gradientUnits="userSpaceOnUse">
<stop stop-color="#BE3820"/>
<stop offset="1" stop-color="#B22727"/>
</linearGradient>
</defs>
</svg>
