<svg width="1553" height="1610" viewBox="0 0 1553 1610" fill="none" xmlns="http://www.w3.org/2000/svg">
<g filter="url(#filter0_n_176_7)">
<rect x="223.385" width="1240.23" height="1602.42" rx="100" fill="url(#paint0_radial_176_7)"/>
</g>
<g filter="url(#filter1_n_176_7)">
<rect x="225" y="3.42285" width="1233" height="1606" rx="100" fill="url(#paint1_linear_176_7)"/>
</g>
<g filter="url(#filter2_d_176_7)">
<g filter="url(#filter3_n_176_7)">
<g clip-path="url(#clip0_176_7)">
<path d="M79.536 793.592C83.6171 791.634 85.6577 790.655 87.6014 790.707C89.3104 790.753 90.9644 791.342 92.3261 792.388C93.8746 793.579 94.8614 795.635 96.8349 799.748L106.703 820.312C108.676 824.425 109.663 826.481 109.623 828.434C109.587 830.151 109.011 831.81 107.978 833.172C106.803 834.72 104.762 835.7 100.681 837.658L52.1997 860.922C50.4288 861.771 49.5433 862.196 48.8807 862.058C48.593 861.999 48.3212 861.878 48.0841 861.703C47.8469 861.528 47.6501 861.304 47.5073 861.046C47.1766 860.45 47.3125 859.472 47.5809 857.518L50.755 834.509L30.8236 822.587C29.1279 821.575 28.28 821.07 28.0204 820.435C27.9092 820.163 27.8579 819.869 27.8702 819.576C27.8825 819.282 27.9581 818.995 28.0917 818.734C28.3984 818.131 29.2838 817.706 31.0547 816.856L79.536 793.592Z" fill="#D84747" stroke="#D84747" stroke-linecap="round" stroke-linejoin="round"/>
</g>
<rect x="91.9208" y="761.09" width="96.7793" height="96.7793" transform="rotate(64.3659 91.9208 761.09)" stroke="#D84747"/>
</g>
<g filter="url(#filter4_n_176_7)">
<path d="M325.469 767.993L133.486 794.516" stroke="#D84747" stroke-width="50"/>
</g>
<g filter="url(#filter5_n_176_7)">
<path d="M78.2217 821.256L140.661 792.404" stroke="#D84747" stroke-width="50"/>
</g>
</g>
<g filter="url(#filter6_dn_176_7)">
<g filter="url(#filter7_n_176_7)">
<path d="M1516.53 704.774L1538.01 691.979L1536.63 689.663L1534.79 687.694L1516.53 704.774ZM1484.41 647.641L1508.9 642.627L1484.41 647.641ZM1479.66 628.644L1503.62 621.516L1479.66 628.644ZM1466.35 599.425L1459.61 623.499L1466.35 599.425ZM1461.32 598.015L1468.06 573.942L1467.98 573.92L1467.9 573.898L1461.32 598.015ZM1451.3 595.281L1429.83 608.076L1434.99 616.742L1444.72 619.399L1451.3 595.281ZM1516.58 704.859L1538.06 692.064L1538.01 691.979L1516.53 704.774L1495.06 717.569L1495.11 717.655L1516.58 704.859ZM1516.53 704.774L1534.79 687.694L1521.71 673.717L1503.46 690.797L1485.2 707.876L1498.28 721.853L1516.53 704.774ZM1503.46 690.797L1521.71 673.717C1518.06 669.813 1515.69 666.74 1514.25 664.471C1512.75 662.108 1512.74 661.38 1512.88 662.08L1488.39 667.093L1463.9 672.107C1466.67 685.657 1475.77 697.799 1485.2 707.876L1503.46 690.797ZM1488.39 667.093L1512.88 662.08L1510.89 652.353L1486.4 657.367L1461.91 662.381L1463.9 672.107L1488.39 667.093ZM1486.4 657.367L1510.89 652.353L1508.9 642.627L1484.41 647.641L1459.92 652.654L1461.91 662.381L1486.4 657.367ZM1484.41 647.641L1508.9 642.627C1507.43 635.449 1505.67 628.411 1503.62 621.516L1479.66 628.644L1455.7 635.773C1457.32 641.238 1458.73 646.863 1459.92 652.654L1484.41 647.641ZM1479.66 628.644L1503.62 621.516L1500.86 612.246L1476.9 619.375L1452.94 626.503L1455.7 635.773L1479.66 628.644ZM1476.9 619.375L1500.86 612.246L1498.11 602.977L1474.14 610.105L1450.18 617.234L1452.94 626.503L1476.9 619.375ZM1474.14 610.105L1498.11 602.977C1495.84 595.372 1489.79 580.03 1473.1 575.352L1466.35 599.425L1459.61 623.499C1454.59 622.092 1451.74 619.069 1450.62 617.534C1449.65 616.211 1449.73 615.727 1450.18 617.234L1474.14 610.105ZM1466.35 599.425L1473.1 575.352L1468.06 573.942L1461.32 598.015L1454.58 622.089L1459.61 623.499L1466.35 599.425ZM1461.32 598.015L1467.9 573.898L1457.89 571.164L1451.3 595.281L1444.72 619.399L1454.74 622.133L1461.32 598.015ZM1451.3 595.281L1472.78 582.486L1472.73 582.4L1451.25 595.195L1429.78 607.99L1429.83 608.076L1451.3 595.281Z" fill="#AC2323"/>
</g>
<g filter="url(#filter8_n_176_7)">
<line x1="1379.29" y1="753.971" x2="1543.16" y2="716.655" stroke="#D84747" stroke-width="50"/>
</g>
<g filter="url(#filter9_n_176_7)">
<line x1="1458.86" y1="597.159" x2="1338.96" y2="561.128" stroke="#D84747" stroke-width="50"/>
</g>
</g>
<rect x="279" y="56.4229" width="1125" height="1499" rx="60" fill="white"/>
<defs>
<filter id="filter0_n_176_7" x="223.385" y="0" width="1240.23" height="1602.42" filterUnits="userSpaceOnUse" color-interpolation-filters="sRGB">
<feFlood flood-opacity="0" result="BackgroundImageFix"/>
<feBlend mode="normal" in="SourceGraphic" in2="BackgroundImageFix" result="shape"/>
<feTurbulence type="fractalNoise" baseFrequency="1.25 1.25" stitchTiles="stitch" numOctaves="3" result="noise" seed="5456" />
<feColorMatrix in="noise" type="luminanceToAlpha" result="alphaNoise" />
<feComponentTransfer in="alphaNoise" result="coloredNoise1">
<feFuncA type="discrete" tableValues="1 1 1 1 1 1 1 1 1 1 1 1 1 1 1 1 1 1 1 1 1 1 1 1 1 1 1 1 1 1 1 1 1 1 1 1 1 1 1 1 1 1 1 1 1 1 1 1 1 1 1 0 0 0 0 0 0 0 0 0 0 0 0 0 0 0 0 0 0 0 0 0 0 0 0 0 0 0 0 0 0 0 0 0 0 0 0 0 0 0 0 0 0 0 0 0 0 0 0 0 "/>
</feComponentTransfer>
<feComposite operator="in" in2="shape" in="coloredNoise1" result="noise1Clipped" />
<feFlood flood-color="rgba(0, 0, 0, 0.25)" result="color1Flood" />
<feComposite operator="in" in2="noise1Clipped" in="color1Flood" result="color1" />
<feMerge result="effect1_noise_176_7">
<feMergeNode in="shape" />
<feMergeNode in="color1" />
</feMerge>
</filter>
<filter id="filter1_n_176_7" x="225" y="3.42285" width="1233" height="1606" filterUnits="userSpaceOnUse" color-interpolation-filters="sRGB">
<feFlood flood-opacity="0" result="BackgroundImageFix"/>
<feBlend mode="normal" in="SourceGraphic" in2="BackgroundImageFix" result="shape"/>
<feTurbulence type="fractalNoise" baseFrequency="1 1" stitchTiles="stitch" numOctaves="3" result="noise" seed="6575" />
<feColorMatrix in="noise" type="luminanceToAlpha" result="alphaNoise" />
<feComponentTransfer in="alphaNoise" result="coloredNoise1">
<feFuncA type="discrete" tableValues="0 0 0 0 0 0 0 0 0 0 0 0 0 0 1 1 1 1 1 1 1 1 1 1 1 1 1 1 1 1 1 1 1 1 1 1 0 0 0 0 0 0 0 0 0 0 0 0 0 0 0 0 0 0 0 0 0 0 0 0 0 0 0 0 0 0 0 0 0 0 0 0 0 0 0 0 0 0 0 0 0 0 0 0 0 0 0 0 0 0 0 0 0 0 0 0 0 0 0 0 "/>
</feComponentTransfer>
<feComposite operator="in" in2="shape" in="coloredNoise1" result="noise1Clipped" />
<feFlood flood-color="rgba(0, 0, 0, 0.25)" result="color1Flood" />
<feComposite operator="in" in2="noise1Clipped" in="color1Flood" result="color1" />
<feMerge result="effect1_noise_176_7">
<feMergeNode in="shape" />
<feMergeNode in="color1" />
</feMerge>
</filter>
<filter id="filter2_d_176_7" x="0" y="743.229" width="332.89" height="166.651" filterUnits="userSpaceOnUse" color-interpolation-filters="sRGB">
<feFlood flood-opacity="0" result="BackgroundImageFix"/>
<feColorMatrix in="SourceAlpha" type="matrix" values="0 0 0 0 0 0 0 0 0 0 0 0 0 0 0 0 0 0 127 0" result="hardAlpha"/>
<feOffset dy="15"/>
<feGaussianBlur stdDeviation="2"/>
<feComposite in2="hardAlpha" operator="out"/>
<feColorMatrix type="matrix" values="0 0 0 0 0.831731 0 0 0 0 0.195937 0 0 0 0 0.195937 0 0 0 1 0"/>
<feBlend mode="multiply" in2="BackgroundImageFix" result="effect1_dropShadow_176_7"/>
<feBlend mode="normal" in="SourceGraphic" in2="effect1_dropShadow_176_7" result="shape"/>
</filter>
<filter id="filter3_n_176_7" x="4" y="760.423" width="130.457" height="130.457" filterUnits="userSpaceOnUse" color-interpolation-filters="sRGB">
<feFlood flood-opacity="0" result="BackgroundImageFix"/>
<feBlend mode="normal" in="SourceGraphic" in2="BackgroundImageFix" result="shape"/>
<feTurbulence type="fractalNoise" baseFrequency="1 1" stitchTiles="stitch" numOctaves="3" result="noise" seed="1395" />
<feColorMatrix in="noise" type="luminanceToAlpha" result="alphaNoise" />
<feComponentTransfer in="alphaNoise" result="coloredNoise1">
<feFuncA type="discrete" tableValues="0 0 0 0 0 0 0 0 0 0 0 0 1 1 1 1 1 1 1 1 1 1 1 1 1 1 1 1 1 1 1 1 1 1 1 1 1 1 0 0 0 0 0 0 0 0 0 0 0 0 0 0 0 0 0 0 0 0 0 0 0 0 0 0 0 0 0 0 0 0 0 0 0 0 0 0 0 0 0 0 0 0 0 0 0 0 0 0 0 0 0 0 0 0 0 0 0 0 0 0 "/>
</feComponentTransfer>
<feComposite operator="in" in2="shape" in="coloredNoise1" result="noise1Clipped" />
<feFlood flood-color="rgba(192, 43, 43, 0.25)" result="color1Flood" />
<feComposite operator="in" in2="noise1Clipped" in="color1Flood" result="color1" />
<feMerge result="effect1_noise_176_7">
<feMergeNode in="shape" />
<feMergeNode in="color1" />
</feMerge>
</filter>
<filter id="filter4_n_176_7" x="130.064" y="743.229" width="198.825" height="76.0527" filterUnits="userSpaceOnUse" color-interpolation-filters="sRGB">
<feFlood flood-opacity="0" result="BackgroundImageFix"/>
<feBlend mode="normal" in="SourceGraphic" in2="BackgroundImageFix" result="shape"/>
<feTurbulence type="fractalNoise" baseFrequency="1 1" stitchTiles="stitch" numOctaves="3" result="noise" seed="1395" />
<feColorMatrix in="noise" type="luminanceToAlpha" result="alphaNoise" />
<feComponentTransfer in="alphaNoise" result="coloredNoise1">
<feFuncA type="discrete" tableValues="0 0 0 0 0 0 0 0 0 0 0 0 1 1 1 1 1 1 1 1 1 1 1 1 1 1 1 1 1 1 1 1 1 1 1 1 1 1 0 0 0 0 0 0 0 0 0 0 0 0 0 0 0 0 0 0 0 0 0 0 0 0 0 0 0 0 0 0 0 0 0 0 0 0 0 0 0 0 0 0 0 0 0 0 0 0 0 0 0 0 0 0 0 0 0 0 0 0 0 0 "/>
</feComponentTransfer>
<feComposite operator="in" in2="shape" in="coloredNoise1" result="noise1Clipped" />
<feFlood flood-color="rgba(192, 43, 43, 0.25)" result="color1Flood" />
<feComposite operator="in" in2="noise1Clipped" in="color1Flood" result="color1" />
<feMerge result="effect1_noise_176_7">
<feMergeNode in="shape" />
<feMergeNode in="color1" />
</feMerge>
</filter>
<filter id="filter5_n_176_7" x="67.7354" y="769.709" width="83.4131" height="74.2412" filterUnits="userSpaceOnUse" color-interpolation-filters="sRGB">
<feFlood flood-opacity="0" result="BackgroundImageFix"/>
<feBlend mode="normal" in="SourceGraphic" in2="BackgroundImageFix" result="shape"/>
<feTurbulence type="fractalNoise" baseFrequency="1 1" stitchTiles="stitch" numOctaves="3" result="noise" seed="1395" />
<feColorMatrix in="noise" type="luminanceToAlpha" result="alphaNoise" />
<feComponentTransfer in="alphaNoise" result="coloredNoise1">
<feFuncA type="discrete" tableValues="0 0 0 0 0 0 0 0 0 0 0 0 1 1 1 1 1 1 1 1 1 1 1 1 1 1 1 1 1 1 1 1 1 1 1 1 1 1 0 0 0 0 0 0 0 0 0 0 0 0 0 0 0 0 0 0 0 0 0 0 0 0 0 0 0 0 0 0 0 0 0 0 0 0 0 0 0 0 0 0 0 0 0 0 0 0 0 0 0 0 0 0 0 0 0 0 0 0 0 0 "/>
</feComponentTransfer>
<feComposite operator="in" in2="shape" in="coloredNoise1" result="noise1Clipped" />
<feFlood flood-color="rgba(192, 43, 43, 0.25)" result="color1Flood" />
<feComposite operator="in" in2="noise1Clipped" in="color1Flood" result="color1" />
<feMerge result="effect1_noise_176_7">
<feMergeNode in="shape" />
<feMergeNode in="color1" />
</feMerge>
</filter>
<filter id="filter6_dn_176_7" x="1327.76" y="537.186" width="224.943" height="257.161" filterUnits="userSpaceOnUse" color-interpolation-filters="sRGB">
<feFlood flood-opacity="0" result="BackgroundImageFix"/>
<feColorMatrix in="SourceAlpha" type="matrix" values="0 0 0 0 0 0 0 0 0 0 0 0 0 0 0 0 0 0 127 0" result="hardAlpha"/>
<feOffset dy="12"/>
<feGaussianBlur stdDeviation="2"/>
<feComposite in2="hardAlpha" operator="out"/>
<feColorMatrix type="matrix" values="0 0 0 0 0.75 0 0 0 0 0.1875 0 0 0 0 0.1875 0 0 0 1 0"/>
<feBlend mode="multiply" in2="BackgroundImageFix" result="effect1_dropShadow_176_7"/>
<feBlend mode="normal" in="SourceGraphic" in2="BackgroundImageFix" result="shape"/>
<feTurbulence type="fractalNoise" baseFrequency="1.25 1.25" stitchTiles="stitch" numOctaves="3" result="noise" seed="6083" />
<feColorMatrix in="noise" type="luminanceToAlpha" result="alphaNoise" />
<feComponentTransfer in="alphaNoise" result="coloredNoise1">
<feFuncA type="discrete" tableValues="0 0 0 0 0 0 0 0 0 0 1 1 1 1 1 1 1 1 1 1 1 1 1 1 1 1 1 1 1 1 1 1 1 1 1 1 1 1 1 0 0 0 0 0 0 0 0 0 0 0 0 0 0 0 0 0 0 0 0 0 0 0 0 0 0 0 0 0 0 0 0 0 0 0 0 0 0 0 0 0 0 0 0 0 0 0 0 0 0 0 0 0 0 0 0 0 0 0 0 0 "/>
</feComponentTransfer>
<feComposite operator="in" in2="shape" in="coloredNoise1" result="noise1Clipped" />
<feFlood flood-color="rgba(226, 73, 46, 0.25)" result="color1Flood" />
<feComposite operator="in" in2="noise1Clipped" in="color1Flood" result="color1" />
<feMerge result="effect2_noise_176_7">
<feMergeNode in="shape" />
<feMergeNode in="color1" />
</feMerge>
<feBlend mode="normal" in="effect2_noise_176_7" in2="effect1_dropShadow_176_7" result="effect2_noise_176_7"/>
</filter>
<filter id="filter7_n_176_7" x="1429.78" y="571.164" width="108.286" height="150.689" filterUnits="userSpaceOnUse" color-interpolation-filters="sRGB">
<feFlood flood-opacity="0" result="BackgroundImageFix"/>
<feBlend mode="normal" in="SourceGraphic" in2="BackgroundImageFix" result="shape"/>
<feTurbulence type="fractalNoise" baseFrequency="1 1" stitchTiles="stitch" numOctaves="3" result="noise" seed="1395" />
<feColorMatrix in="noise" type="luminanceToAlpha" result="alphaNoise" />
<feComponentTransfer in="alphaNoise" result="coloredNoise1">
<feFuncA type="discrete" tableValues="0 0 0 0 0 0 0 0 0 0 0 0 1 1 1 1 1 1 1 1 1 1 1 1 1 1 1 1 1 1 1 1 1 1 1 1 1 1 0 0 0 0 0 0 0 0 0 0 0 0 0 0 0 0 0 0 0 0 0 0 0 0 0 0 0 0 0 0 0 0 0 0 0 0 0 0 0 0 0 0 0 0 0 0 0 0 0 0 0 0 0 0 0 0 0 0 0 0 0 0 "/>
</feComponentTransfer>
<feComposite operator="in" in2="shape" in="coloredNoise1" result="noise1Clipped" />
<feFlood flood-color="rgba(192, 43, 43, 0.25)" result="color1Flood" />
<feComposite operator="in" in2="noise1Clipped" in="color1Flood" result="color1" />
<feMerge result="effect1_noise_176_7">
<feMergeNode in="shape" />
<feMergeNode in="color1" />
</feMerge>
</filter>
<filter id="filter8_n_176_7" x="1373.74" y="692.279" width="174.967" height="86.0674" filterUnits="userSpaceOnUse" color-interpolation-filters="sRGB">
<feFlood flood-opacity="0" result="BackgroundImageFix"/>
<feBlend mode="normal" in="SourceGraphic" in2="BackgroundImageFix" result="shape"/>
<feTurbulence type="fractalNoise" baseFrequency="1 1" stitchTiles="stitch" numOctaves="3" result="noise" seed="1395" />
<feColorMatrix in="noise" type="luminanceToAlpha" result="alphaNoise" />
<feComponentTransfer in="alphaNoise" result="coloredNoise1">
<feFuncA type="discrete" tableValues="0 0 0 0 0 0 0 0 0 0 0 0 1 1 1 1 1 1 1 1 1 1 1 1 1 1 1 1 1 1 1 1 1 1 1 1 1 1 0 0 0 0 0 0 0 0 0 0 0 0 0 0 0 0 0 0 0 0 0 0 0 0 0 0 0 0 0 0 0 0 0 0 0 0 0 0 0 0 0 0 0 0 0 0 0 0 0 0 0 0 0 0 0 0 0 0 0 0 0 0 "/>
</feComponentTransfer>
<feComposite operator="in" in2="shape" in="coloredNoise1" result="noise1Clipped" />
<feFlood flood-color="rgba(192, 43, 43, 0.25)" result="color1Flood" />
<feComposite operator="in" in2="noise1Clipped" in="color1Flood" result="color1" />
<feMerge result="effect1_noise_176_7">
<feMergeNode in="shape" />
<feMergeNode in="color1" />
</feMerge>
</filter>
<filter id="filter9_n_176_7" x="1331.76" y="537.186" width="134.292" height="83.916" filterUnits="userSpaceOnUse" color-interpolation-filters="sRGB">
<feFlood flood-opacity="0" result="BackgroundImageFix"/>
<feBlend mode="normal" in="SourceGraphic" in2="BackgroundImageFix" result="shape"/>
<feTurbulence type="fractalNoise" baseFrequency="1 1" stitchTiles="stitch" numOctaves="3" result="noise" seed="1395" />
<feColorMatrix in="noise" type="luminanceToAlpha" result="alphaNoise" />
<feComponentTransfer in="alphaNoise" result="coloredNoise1">
<feFuncA type="discrete" tableValues="0 0 0 0 0 0 0 0 0 0 0 0 1 1 1 1 1 1 1 1 1 1 1 1 1 1 1 1 1 1 1 1 1 1 1 1 1 1 0 0 0 0 0 0 0 0 0 0 0 0 0 0 0 0 0 0 0 0 0 0 0 0 0 0 0 0 0 0 0 0 0 0 0 0 0 0 0 0 0 0 0 0 0 0 0 0 0 0 0 0 0 0 0 0 0 0 0 0 0 0 "/>
</feComponentTransfer>
<feComposite operator="in" in2="shape" in="coloredNoise1" result="noise1Clipped" />
<feFlood flood-color="rgba(192, 43, 43, 0.25)" result="color1Flood" />
<feComposite operator="in" in2="noise1Clipped" in="color1Flood" result="color1" />
<feMerge result="effect1_noise_176_7">
<feMergeNode in="shape" />
<feMergeNode in="color1" />
</feMerge>
</filter>
<radialGradient id="paint0_radial_176_7" cx="0" cy="0" r="1" gradientUnits="userSpaceOnUse" gradientTransform="translate(518.725 49.3898) rotate(78.1884) scale(1586.63 1228.01)">
<stop stop-color="#F4E7D5"/>
<stop offset="1" stop-color="#B22727"/>
</radialGradient>
<linearGradient id="paint1_linear_176_7" x1="694.793" y1="-0.281664" x2="881.344" y2="1030.44" gradientUnits="userSpaceOnUse">
<stop stop-color="#BE3820"/>
<stop offset="1" stop-color="#B22727"/>
</linearGradient>
<clipPath id="clip0_176_7">
<rect x="92.1553" y="760.423" width="97.7793" height="97.7793" transform="rotate(64.3659 92.1553 760.423)" fill="white"/>
</clipPath>
</defs>
</svg>
