<svg version="1.2" xmlns="http://www.w3.org/2000/svg" viewBox="0 0 1552 418" width="1552" height="418"><style></style><path  d="m344 350.5c-7.9 8.7-17.4 17.3-27 24.6-9.9 7.5-19.3 7.9-26.9 2.3-7.5-5.6-7-14.7-2.7-24.9 2.3-5.4 5.4-10.8 8.1-16.2-35.1 9.5-74.3-5.4-78.6-45.2-4.4-42.2 31.4-76 68.8-87.9 0.5-7.7 0.9-15.6 1.3-24.5 9.8-0.3 19.2-0.6 29.4-1-2.2 8.2-4.3 15.8-6.5 23.6 17.3 5.8 33.2 12.9 41.6 30.3 12.6 25.9 1 58.6-18.7 78.2-8.8 9.4-17.1 19.3-25 29.3-3.5 4.3-7.6 10.7-2.8 13.3 2.1 1.2 9.4-2.6 12.6-5.8 10.5-10.6 20.2-22.3 30.7-32.9 7-7.1 14.9-13.9 23.1-19.4 9.2-6.6 20.9-11.1 32.1-9.8 9.1-23.5 14.1-48.9 14.1-75.6 0-115.1-93.5-208.6-208.8-208.6-115.3 0-208.8 93.5-208.8 208.6 0 115.2 93.5 208.6 208.8 208.6 76.9 0 144.1-41.5 180.3-103.4-4.2 0-8.8 1.8-13.6 4.8-12.3 7.6-22.1 21.1-31.5 31.6z"/><path  d="m326.5 263c-1.9-6.8-9.3-18.8-9.7-18.6-1-1-1.9-2.3-2.9-3.3-12.2-11-31.4-11.9-45.2-2.7-14.7 9.6-24 27.3-18.7 44.9 4.6 15.4 15.3 24.7 31 27.4 12.6 2.2 24-3.2 34.2-13.5 10.5-10.6 14.4-22.3 11.2-34.2z"/><path fill-rule="evenodd" d="m583.6 119.9q9.1 8.6 18 17.1-8.2 6.3-16.3 12.5c9.9 13.8 12 31.8 9.3 48.2-2.5 14.9-11.5 28.5-24.1 36.7-9.6 6.5-21.1 8.8-32.5 9.7-10.7 1.4-22.4 0.9-32 7-3.1 1.7-3.9 7.1-0.1 8.7 8.5 3.4 18 1.4 26.8 0.3 13.4-2.3 27.2-4.4 40.6-0.8 11.7 2.8 22.9 10.5 27.4 22 5.4 13.7 4.2 30.5-5.3 42-9.1 11.1-22.7 17.6-36.5 20.6-27.5 6-57.3-0.2-80.4-16.2q7.4-11.1 14.8-22.2c13.5 8.9 29 16.5 45.5 16.1 11.6-0.2 24.4-2.2 33.1-10.5 6.6-5.8 7-17 1.2-23.4-3.7-4-9.2-5.7-14.4-6.4-14-2.3-27.5 3.5-41.3 4-8.7 0.3-17.8-0.4-25.3-4.8-8.8-5.1-12.4-17.3-8.5-26.5 5-9.1 15.3-13.6 24.8-16.3-9.3-4.5-17.7-11-23.3-19.7-8.3-12.9-10.2-28.9-8.2-43.8 2.8-19.5 17.3-36.4 35.6-43.3 11.8-4.5 24.7-4.5 37-2.6 7.3 1.2 14.4 4 20.6 8.1q6.8-8.2 13.5-16.5zm-57.1 30.9c-11.9 3.9-20.1 15.6-21.6 27.8-1.4 11.6 0.9 24.3 8.7 33.5 10.8 13.2 34 13.8 44.9 0.4 7.2-8.6 9.4-20.3 8.7-31.3-0.5-10.8-6.1-21.3-15.1-27.4-7.4-5-17.2-5.6-25.6-3z"/><path fill-rule="evenodd" d="m1367.7 72.8c9.6-3.8 21.2 3.1 22.6 13.3 1.7 9.1-5.3 18.7-14.5 19.6-9.2 1.5-18.5-6-19-15.3-1-7.5 3.9-15.1 10.9-17.6zm-736.5 69.6c16.7-11.8 37.9-16.9 58.2-14.9 14.5 1.1 30 5.3 40 16.7 10.1 11.7 13.1 27.7 13.5 42.8 0.3 20.8-0.1 41.7 0.2 62.5 0.1 9.6 3.5 19.8 12 25 0.1 4.6 0 9.2 0 13.8-9-0.4-18.6-0.7-26.4-5.8-5.3-3.4-8.4-9.2-10.6-14.9-8.4 10.3-20.6 16.9-33.6 19.2-11.4 1.8-23.6 2.6-34.3-2.3-11.3-5.2-20.6-14.9-24.5-26.7-5-14.9-2.7-32.4 7.1-45 12.9-16.9 34.1-25.8 55.1-27 9.4-1 18.9 0.5 27.8 3.5-0.3-11.1-2.4-23.8-11.7-31.1-9.8-7.8-23.3-7.2-34.9-5.5-9.8 1.5-19.1 5.9-26.3 12.7q-5.8-11.5-11.6-23zm47.4 68.2c-11.2 3-22 10.1-27.4 20.7-3.4 6.7-3.6 15.2 0.7 21.5 4.8 7 13.4 10.4 21.7 10.9 13.2 0.8 26.7-4.3 35.8-13.9 5.4-5.7 9.3-13.5 8.3-21.5-0.8-6.7-5.5-12.5-11.4-15.5-8.5-4.5-18.5-4.6-27.7-2.2zm134.4-62.7c8.2-10.8 20.2-19.2 33.9-20.5 19.1-1.7 41.2 3.2 52.1 20.3 7.1-11.5 20.3-17.2 33-19.7 15.6-2.5 33.3 0 45.1 11.4 11 10.3 14.9 25.9 15 40.5 0 35.2 0 70.3 0 105.5q-13.7 0-27.4 0 0-48.4 0-97c-0.1-9.7-1.1-20-7.3-27.9-4.8-6.4-12.9-9.4-20.7-9.9-13.9-1.5-28.3 7.1-33.6 19.9-0.6 38.3-0.1 76.6-0.2 114.9q-13.8 0-27.5 0c0-36.6 0.1-73.3 0-109.9 0.1-5.9-1.8-12.1-6.2-16.3-7.5-7.4-18.8-9.6-29-8.3-9.7 2-18.3 8.4-24.3 16.2-3.2 3.4-2.2 8.4-2.3 12.8 0.1 35.2 0 70.3 0 105.5q-13.7 0-27.4 0 0-77.6 0-155.2 8.9 0 17.8 0 4.5 8.8 9 17.7zm216.1-5.5c16.7-11.9 38-16.9 58.3-14.8 14.5 1.1 29.9 5.2 39.9 16.5 10.1 11.8 13 27.8 13.5 42.9 0.3 20.8-0.1 41.7 0.2 62.5 0 9.6 3.4 19.8 12 25 0 4.6 0 9.2 0 13.7-9-0.3-18.6-0.6-26.4-5.6-5.3-3.5-8.5-9.3-10.7-15-8.3 10.3-20.6 16.9-33.6 19.2-11.4 1.8-23.6 2.6-34.3-2.3-11-5-20.1-14.4-24.2-25.8-5.5-15.6-3-33.9 7.5-46.7 13.3-16.8 34.8-25.5 55.9-26.3 8.9-0.8 17.8 0.8 26.3 3.6-0.3-11.1-2.3-23.7-11.6-31.1-9.8-7.8-23.3-7.2-35-5.5-9.8 1.5-19.1 5.9-26.2 12.8-3.9-7.8-7.8-15.4-11.6-23.1zm47.3 68.2c-11 2.9-21.4 9.7-26.9 19.9-3.6 6.5-4.3 14.9-0.3 21.4 4.1 6.9 12 10.6 19.7 11.6 13.7 1.7 27.9-3.4 37.8-13 5.4-5.5 9.5-13.1 8.9-21-0.4-6.8-4.7-12.9-10.5-16.2-8.7-4.9-19.3-5.2-28.7-2.7zm157.8-79.8c12-4.5 25.4-4.7 37.7-1.9 10.9 2.6 20.6 9.7 26 19.5 7.4 13 8.7 28.3 8.8 42.9 0 31.4 0 62.8 0 94.1q-13.8 0-27.6 0c0-31.4 0.1-62.8-0.1-94.1-0.4-10.6-1.1-22.1-7.4-31.1-6.7-8.7-18.9-10.5-29.2-9.4-11 1.9-21.3 7.9-28.5 16.5-2.7 2.5-1.9 6.4-2 9.7 0.1 36.1 0 72.3 0 108.4q-13.8 0-27.5 0c-0.1-51.7 0-103.5 0-155.1q9.4-0.2 18.8 0c2.8 6.6 5.7 13.1 8.5 19.8 5.3-8.6 13-15.8 22.5-19.3zm193.8 11.6c16.9-11.9 38.2-16.9 58.6-14.8 14.5 1.1 29.9 5.4 39.7 16.7 10 11.8 12.9 27.8 13.4 42.7 0.3 20.9-0.1 41.7 0.2 62.5 0.1 9.5 3.4 19.8 12 24.9 0 4.6 0 9.2 0 13.9-9.2-0.4-19.2-0.7-27-6.2-5-3.5-7.9-9-10.1-14.5-8.4 10.4-20.8 17.1-34.1 19.2-14.7 2.9-31.4 2-43.3-8.2-19.3-14.3-23.1-44.1-9.5-63.5 12.7-18.5 35.2-28.2 57.1-29.3 9.3-1 18.6 0.5 27.3 3.6-0.2-11.1-2.2-23.7-11.3-31.1-9.4-7.5-22.4-7.3-33.6-5.8-10.4 1.3-20.3 5.7-27.9 12.9-3.9-7.7-7.7-15.4-11.5-23zm47.7 68.1c-11.3 3-22.1 9.9-27.5 20.5-3.5 6.4-4 14.8 0.1 21.1 4.4 7.3 12.9 10.8 21 11.6 12.6 1.1 25.6-3.5 35-12.1 5.7-5.3 10.3-12.6 10.3-20.6 0.2-7.3-4.2-14.1-10.4-17.6-8.6-5-19.2-5.3-28.5-2.9zm-138.5-80.3q24.2 0 48.6 0 0 77.6 0 155.2-13.8 0-27.6 0 0-65.9 0-131.8-10.5 0-21 0-0.1-11.7 0-23.4z"/></svg>