<?xml version="1.0" encoding="utf-8"?>
<!-- Generator: Adobe Illustrator 13.0.0, SVG Export Plug-In . SVG Version: 6.00 Build 14948)  -->
<!DOCTYPE svg PUBLIC "-//W3C//DTD SVG 1.0//EN" "http://www.w3.org/TR/2001/REC-SVG-20010904/DTD/svg10.dtd">
<svg version="1.0"
	 id="svg3363" inkscape:version="0.46" sodipodi:docname="pixar_logo.svg" sodipodi:version="0.32" inkscape:output_extension="org.inkscape.output.svg.inkscape" xmlns:dc="http://purl.org/dc/elements/1.1/" xmlns:cc="http://creativecommons.org/ns#" xmlns:rdf="http://www.w3.org/1999/02/22-rdf-syntax-ns#" xmlns:svg="http://www.w3.org/2000/svg" xmlns:sodipodi="http://sodipodi.sourceforge.net/DTD/sodipodi-0.dtd" xmlns:inkscape="http://www.inkscape.org/namespaces/inkscape"
	 xmlns="http://www.w3.org/2000/svg" xmlns:xlink="http://www.w3.org/1999/xlink" x="0px" y="0px" width="331.51px"
	 height="52.451px" viewBox="167.16 28.594 331.51 52.451" enable-background="new 167.16 28.594 331.51 52.451"
	 xml:space="preserve">
<defs>
	
	
		<inkscape:perspective  id="perspective3370" inkscape:persp3d-origin="372.04724 : 350.78739 : 1" inkscape:vp_z="744.09448 : 526.18109 : 1" inkscape:vp_y="0 : 1000 : 0" inkscape:vp_x="0 : 526.18109 : 1" sodipodi:type="inkscape:persp3d">
		</inkscape:perspective>
</defs>
<sodipodi:namedview  id="base" inkscape:current-layer="svg3363" inkscape:pageopacity="0.0" inkscape:pageshadow="2" inkscape:window-width="1280" inkscape:window-height="725" inkscape:window-x="0" inkscape:window-y="25" inkscape:cy="103.52286" inkscape:cx="398.35167" inkscape:zoom="0.80809595" showgrid="false" pagecolor="#ffffff" bordercolor="#666666" borderopacity="1.0" objecttolerance="10.0" gridtolerance="10.0" guidetolerance="10.0">
	</sodipodi:namedview>
<path id="path3422" sodipodi:nodetypes="cccccccsssssssssssscccsssscccsc" d="M217.219,58.184c0.035-0.695,0.114-0.729,2.468-1.016
	l2.246-0.273l0.097-0.549c0.114-0.646,0.109-13.355-0.01-20.962l-0.083-5.339l-0.617-0.183c-0.339-0.1-1.349-0.234-2.244-0.298
	c-1.658-0.119-1.861-0.198-1.866-0.73c-0.002-0.225,0.388-0.24,6.282-0.24c9.373,0,12.064,0.299,14.616,1.62
	c1.878,0.973,3.164,2.675,3.319,4.396c0.143,1.573-0.545,3.885-1.62,5.448c-1.546,2.246-4.813,4.328-8.141,5.188
	c-1.949,0.503-2.262,0.538-2.26,0.246c0.006-0.689,0.149-0.822,1.443-1.334c1.615-0.64,2.687-1.328,3.536-2.274
	c1.39-1.547,1.931-3.234,1.844-5.754c-0.049-1.426-0.096-1.668-0.49-2.51c-1.076-2.3-3.365-3.52-7.021-3.741l-1.476-0.09
	l-0.118,0.602c-0.133,0.68-0.112,21.828,0.025,24.608c0.084,1.691,0.107,1.808,0.384,1.885c0.162,0.045,1.343,0.178,2.625,0.295
	s2.407,0.238,2.501,0.27c0.095,0.029,0.172,0.211,0.172,0.402v0.346h-6.146c-3.38,0-6.896,0.041-7.812,0.09
	C217.492,58.359,217.211,58.343,217.219,58.184z"/>
<path id="path3424" sodipodi:nodetypes="csssssssccccccssscccsscccsc" d="M268.098,58.02c0.001-0.17,0.047-0.373,0.102-0.452
	c0.055-0.079,0.815-0.221,1.689-0.314s1.885-0.243,2.247-0.333c0.657-0.162,0.658-0.162,0.748-0.844
	c0.193-1.463,0.046-25.475-0.159-25.806c-0.051-0.082-1.067-0.274-2.259-0.426c-1.191-0.152-2.177-0.287-2.189-0.299
	s-0.065-0.191-0.117-0.397l-0.094-0.374h6.327c3.479,0,6.804-0.04,7.389-0.09l1.062-0.09l-0.098,0.396
	c-0.054,0.218-0.14,0.438-0.19,0.488c-0.051,0.051-1.058,0.209-2.238,0.353c-1.18,0.143-2.191,0.306-2.247,0.361
	c-0.14,0.14-0.195,18.964-0.068,23.161l0.104,3.404l0.678,0.168c0.373,0.092,1.377,0.227,2.231,0.301s1.571,0.152,1.592,0.174
	c0.021,0.021,0.077,0.191,0.124,0.379l0.085,0.34l-7.053,0.03c-3.879,0.017-7.19,0.063-7.359,0.104
	C268.151,58.314,268.096,58.271,268.098,58.02z"/>
<path id="path3985" d="M336.451,58.659c-2.348-1.915-6.532-6.41-11.89-12.771c-0.584-0.694-1.117-1.262-1.184-1.262
	c-0.459,0-5.961,8.396-7.479,11.414l-0.423,0.841l1.327,0.223c0.729,0.123,1.52,0.254,1.756,0.289
	c0.402,0.061,0.593,0.271,0.593,0.648c0,0.119-1.413,0.164-5.529,0.176l-5.528,0.016l0.086-0.289
	c0.142-0.475,0.35-0.584,1.412-0.752c1.41-0.224,1.781-0.438,2.962-1.703c1.409-1.511,8.218-10.078,9.659-12.154
	c0.092-0.133-0.136-0.497-0.829-1.322c-0.526-0.626-2.401-3.072-4.167-5.436c-1.765-2.364-3.635-4.789-4.155-5.389
	c-0.897-1.036-0.99-1.103-1.828-1.321c-0.485-0.126-1.112-0.233-1.394-0.239c-0.452-0.008-0.512-0.049-0.512-0.351
	c0-0.188-0.015-0.365-0.034-0.393c-0.019-0.029,2.959-0.088,6.617-0.131c6.216-0.074,6.651-0.063,6.649,0.154
	c-0.004,0.447-0.211,0.544-1.638,0.767c-0.79,0.124-1.605,0.27-1.812,0.325l-0.375,0.1l0.932,1.431
	c1.854,2.846,5.587,8.034,5.79,8.043c0.288,0.014,5.123-6.823,6.25-8.837c0.41-0.733,0.379-0.756-1.39-1.067
	c-1.233-0.216-1.323-0.254-1.387-0.584c-0.037-0.194-0.058-0.363-0.046-0.374c0.012-0.011,2.28-0.042,5.04-0.068l5.018-0.049
	l-0.088,0.41c-0.048,0.225-0.097,0.421-0.107,0.435c-0.012,0.013-0.629,0.148-1.372,0.301c-1.311,0.268-1.375,0.298-2.093,0.998
	c-0.85,0.829-4.469,4.923-7.081,8.008l-1.778,2.101l1.065,1.367c1.058,1.357,1.525,2.005,6.467,8.962
	c2.105,2.964,5.228,7.255,5.832,8.015c0.106,0.135-0.145,0.172-1.17,0.172h-1.306L336.451,58.659z"/>
<path id="path4036" sodipodi:nodetypes="ccccssssscccssssscccsscccscccsccsssscccc" d="M446.256,58.359
	c-2.288-1.697-7.162-6.552-12.02-11.972l-1.946-2.171l-1.97,0.083c-1.082,0.045-2.018,0.127-2.078,0.181
	c-0.131,0.119,0.043,11.734,0.179,11.955c0.132,0.213,0.878,0.359,2.806,0.551c1.59,0.156,1.658,0.176,1.738,0.5
	c0.047,0.186,0.066,0.354,0.045,0.375c-0.022,0.021-3.295,0.061-7.272,0.088l-7.231,0.049c-0.02-0.269,0.006-0.494,0.17-0.71
	c0.094-0.071,1.115-0.235,2.271-0.363c1.173-0.13,2.143-0.302,2.196-0.388c0.052-0.086,0.14-0.678,0.193-1.317
	c0.109-1.296-0.047-24.265-0.169-24.876c-0.098-0.484-0.567-0.636-2.285-0.739c-2.297-0.137-2.377-0.157-2.377-0.611v-0.399
	l4.923,0.005c13.694,0.014,16.752,0.476,18.899,2.853c1.338,1.481,1.477,3.433,0.399,5.632c-0.804,1.641-2.922,3.855-4.624,4.832
	l-0.705,0.405l0.49,0.843c0.701,1.206,4.591,7.021,6.195,9.263c1.617,2.26,2.469,3.354,3.979,5.113l1.126,1.311L448.334,59
	c-0.471,0.082-0.892,0.15-0.936,0.15C447.355,59.15,446.841,58.795,446.256,58.359z M431.872,42.7
	c1.889-0.377,3.153-1.021,4.368-2.222c1.113-1.102,1.596-1.991,1.906-3.512c0.642-3.144-1.412-5.745-5.326-6.746
	c-1.494-0.382-4.219-0.64-4.438-0.42c-0.125,0.125-0.177,1.8-0.212,6.762l-0.045,6.597l1.199-0.095
	C429.984,43.012,431.131,42.849,431.872,42.7z"/>
<path id="path4038" sodipodi:nodetypes="ccccssscccssssscccscccscccsscccsssscccccccsssssccc" d="M360.295,57.803
	c0.07-0.482-0.056-0.438,2.215-0.793l1.568-0.245l0.508-0.955c0.971-1.828,3.011-6.841,7.162-17.603
	c1.691-4.385,3.063-8.145,2.994-8.212c-0.031-0.033-0.664-0.152-1.404-0.267c-2.061-0.318-1.959-0.282-1.959-0.701l0.001-0.373
	l6.499-0.043c5.992-0.04,6.492-0.025,6.413,0.182c-0.048,0.124-0.087,0.301-0.087,0.393c0,0.11-0.549,0.255-1.57,0.415
	c-0.865,0.136-1.604,0.296-1.641,0.357s0.665,2.188,1.563,4.725c3.268,9.247,6.035,16.345,7.922,20.32l0.786,1.656l0.667,0.157
	c0.637,0.149,2.465,0.411,2.936,0.421c0.141,0.002,0.245,0.15,0.281,0.397l0.059,0.394l-7.172,0.061
	c-3.945,0.032-7.181,0.055-7.191,0.049c-0.01-0.005,0.012-0.199,0.047-0.432l0.064-0.423l1.865-0.229
	c2.355-0.291,2.52-0.332,2.395-0.615c-0.154-0.352-1.34-3.704-2.178-6.156c-0.422-1.238-1.076-3.065-1.453-4.06l-0.686-1.808h-0.769
	c-2.126,0-9.095,0.435-9.237,0.577c-0.296,0.296-2.209,7.193-2.715,9.795c-0.191,0.977-0.347,1.798-0.347,1.826
	c0,0.104,0.653,0.246,2.183,0.471c1.541,0.229,1.57,0.239,1.613,0.605l0.043,0.371l-5.023,0.002c-2.764,0-5.337,0.039-5.719,0.084
	l-0.695,0.084L360.295,57.803z M380.385,42.845c-0.072-0.188-0.225-0.523-0.339-0.745c-0.195-0.378-1.938-5.427-3.296-9.55
	c-0.333-1.01-0.626-1.856-0.651-1.882c-0.163-0.163-4.583,11.665-4.583,12.262c0,0.063,1.551,0.133,3.445,0.154
	s3.92,0.054,4.5,0.071l1.054,0.032L380.385,42.845z"/>
<path id="path4092" d="M167.181,79.82c0.019-0.072,0.046-0.08,0.454-0.145c0.647-0.102,0.576-0.057,0.756-0.476
	c0.24-0.562,0.62-1.522,1.14-2.884c0.562-1.471,1.657-4.398,1.672-4.465c0.008-0.037-0.084-0.063-0.457-0.123
	c-0.257-0.041-0.469-0.076-0.471-0.077s-0.012-0.038-0.021-0.081l-0.019-0.077h1.603h1.603l-0.009,0.077
	c-0.009,0.076-0.026,0.081-0.445,0.15c-0.239,0.041-0.444,0.082-0.455,0.094c-0.011,0.012,0.095,0.379,0.236,0.814
	c0.752,2.332,1.867,5.293,2.497,6.635l0.142,0.303l0.173,0.035c0.095,0.02,0.327,0.059,0.515,0.088
	c0.32,0.047,0.344,0.056,0.363,0.129l0.021,0.077l-1.753,0.001c-0.965,0-1.754-0.012-1.754-0.025c0-0.104,0.067-0.139,0.302-0.16
	c0.324-0.027,0.862-0.111,0.91-0.141c0.028-0.018-0.034-0.236-0.233-0.83c-0.325-0.965-0.746-2.168-0.886-2.529l-0.101-0.262
	l-0.72,0.021c-0.721,0.021-1.55,0.063-1.972,0.1l-0.226,0.02l-0.154,0.487c-0.464,1.462-0.836,2.921-0.762,2.989
	c0.033,0.031,0.656,0.158,0.775,0.158c0.057,0,0.089,0.022,0.111,0.08c0.017,0.043,0.03,0.082,0.03,0.085s-0.649,0.006-1.442,0.006
	h-1.442L167.181,79.82z M172.876,75.67c0-0.055-0.807-2.383-1.09-3.146l-0.195-0.525l-0.054,0.105c-0.081,0.158-0.37,0.9-0.745,1.91
	c-0.46,1.238-0.573,1.569-0.547,1.596c0.013,0.013,0.466,0.031,1.008,0.041c0.542,0.009,1.129,0.02,1.305,0.022
	C172.733,75.676,172.876,75.676,172.876,75.67z"/>
<path id="path4145" sodipodi:nodetypes="ccccssscccssssssssccccccscccsssscccsssssssc" d="M195.19,78.445
	c-1.733-2.165-4.58-5.668-4.716-5.803l-0.075-0.075l0.019,1.59c0.04,3.354,0.102,5.339,0.169,5.38
	c0.04,0.025,0.402,0.072,0.933,0.121c0.212,0.02,0.389,0.037,0.391,0.038c0.003,0.001,0.013,0.036,0.024,0.077l0.019,0.074h-1.592
	c-1.313,0-1.588-0.008-1.576-0.039c0.009-0.022,0.016-0.057,0.016-0.076c0-0.025,0.13-0.055,0.396-0.088
	c0.48-0.063,0.605-0.096,0.625-0.162c0.061-0.205,0.152-2.588,0.228-5.932c0.023-1.021,0.022-1.37-0.003-1.386
	c-0.04-0.024-0.202-0.046-0.796-0.103c-0.235-0.023-0.43-0.045-0.434-0.051c-0.004-0.005-0.016-0.043-0.026-0.086l-0.019-0.078
	l0.675-0.02c0.372-0.01,0.89-0.027,1.151-0.037l0.475-0.017l0.223,0.308c0.568,0.785,1.929,2.527,3.746,4.797
	c0.679,0.848,1.294,1.619,1.367,1.714l0.132,0.171l0.01-0.676c0.02-1.492-0.068-5.455-0.13-5.838
	c-0.018-0.106-0.021-0.108-0.201-0.139c-0.101-0.018-0.384-0.055-0.629-0.082s-0.448-0.052-0.451-0.053
	c-0.003-0.002-0.014-0.037-0.023-0.078l-0.019-0.074h1.531c1.517,0,1.531,0.001,1.513,0.061c-0.01,0.031-0.026,0.068-0.037,0.078
	c-0.011,0.012-0.22,0.057-0.464,0.1c-0.245,0.043-0.451,0.084-0.458,0.09c-0.021,0.021-0.087,0.736-0.121,1.307
	c-0.041,0.67-0.078,2.174-0.12,4.828c-0.018,1.137-0.035,2.117-0.039,2.179C196.899,80.576,196.854,80.522,195.19,78.445z"/>
<path id="path4210" sodipodi:nodetypes="ccccssscccssssssssccccccscccsssscccsssssssc" d="M338.684,78.436
	c-1.76-2.197-4.649-5.752-4.788-5.891l-0.076-0.074l0.019,1.613c0.041,3.404,0.104,5.419,0.172,5.461
	c0.041,0.025,0.408,0.072,0.946,0.122c0.216,0.021,0.395,0.038,0.397,0.039c0.002,0.001,0.014,0.036,0.023,0.079l0.02,0.074h-1.616
	c-1.333,0-1.612-0.007-1.6-0.039c0.008-0.023,0.015-0.058,0.015-0.078c0-0.025,0.132-0.055,0.403-0.09
	c0.487-0.063,0.615-0.096,0.635-0.163c0.062-0.208,0.154-2.628,0.23-6.021c0.023-1.036,0.022-1.39-0.003-1.406
	c-0.04-0.024-0.205-0.046-0.808-0.104c-0.238-0.023-0.437-0.046-0.44-0.051c-0.004-0.006-0.016-0.045-0.026-0.088l-0.019-0.078
	l0.686-0.02c0.377-0.012,0.903-0.028,1.168-0.038l0.482-0.018l0.226,0.312c0.577,0.797,1.958,2.566,3.802,4.869
	c0.689,0.861,1.314,1.645,1.389,1.74l0.134,0.174l0.009-0.687c0.021-1.515-0.068-5.538-0.131-5.925
	c-0.018-0.109-0.021-0.111-0.205-0.143c-0.102-0.018-0.389-0.055-0.639-0.082c-0.248-0.027-0.454-0.053-0.457-0.055
	c-0.003-0.001-0.014-0.037-0.023-0.078l-0.02-0.074h1.555c1.54,0,1.554,0,1.536,0.06c-0.011,0.033-0.026,0.069-0.038,0.081
	c-0.01,0.011-0.223,0.056-0.471,0.1s-0.457,0.086-0.465,0.092c-0.02,0.021-0.088,0.748-0.123,1.326
	c-0.041,0.68-0.078,2.205-0.121,4.9c-0.019,1.154-0.036,2.148-0.039,2.211C340.418,80.6,340.371,80.545,338.684,78.436z"/>
<path id="path4147" sodipodi:nodetypes="cssssscccsscccssssc" d="M211.384,79.928c0-0.004,0.013-0.041,0.029-0.083
	c0.023-0.063,0.049-0.077,0.142-0.078c0.167-0.003,1.049-0.132,1.074-0.159c0.084-0.082,0.09-7.328,0.006-7.412
	c-0.016-0.016-0.232-0.048-1.041-0.158c-0.139-0.02-0.165-0.033-0.182-0.097l-0.021-0.075h1.743c1.729,0,1.743,0.001,1.725,0.061
	c-0.01,0.033-0.026,0.068-0.037,0.08c-0.01,0.01-0.284,0.057-0.607,0.101l-0.588,0.081l-0.024,0.168
	c-0.031,0.22-0.03,6.73,0.002,7.031c0.028,0.275-0.042,0.24,0.692,0.333c0.54,0.067,0.563,0.075,0.579,0.198
	c0.001,0.008-0.784,0.015-1.745,0.015C212.17,79.933,211.384,79.93,211.384,79.928z"/>
<path id="path4265" sodipodi:nodetypes="csssssscccsssssssssssssscccssscccssscccscccsssssscccc" d="M228.343,79.912
	c0.009-0.021,0.016-0.058,0.016-0.078c0-0.026,0.11-0.056,0.338-0.09c0.528-0.08,0.556-0.09,0.59-0.221
	c0.142-0.543,0.512-7.2,0.512-7.338c0-0.029-0.198-0.071-0.646-0.135c-0.198-0.027-0.363-0.053-0.366-0.055
	c-0.003-0.002-0.014-0.037-0.024-0.078l-0.019-0.076h1.488c1.227,0,1.486,0.008,1.473,0.041c-0.008,0.021-0.015,0.056-0.015,0.076
	c0,0.021-0.139,0.063-0.359,0.107c-0.197,0.039-0.376,0.081-0.396,0.094c-0.027,0.017,0,0.133,0.107,0.453
	c0.431,1.286,2.417,5.51,2.48,5.573c0.01,0.011,0.023,0.013,0.03,0.006c0.05-0.052,2.898-5.952,2.898-6.024
	c0-0.018-0.234-0.07-0.523-0.119c-0.298-0.049-0.347-0.072-0.348-0.162c0-0.039,0.173-0.045,1.382-0.045
	c1.139,0,1.379,0.008,1.367,0.041c-0.008,0.021-0.015,0.057-0.015,0.078c0,0.025-0.11,0.055-0.338,0.09
	c-0.186,0.027-0.394,0.064-0.461,0.081l-0.122,0.03l0.042,0.23c0.177,0.964,0.152,6.6,0.292,7.131
	c0.035,0.13,0.067,0.143,0.568,0.221c0.302,0.046,0.391,0.086,0.391,0.176c0,0.021-0.499,0.031-1.616,0.031l-1.616,0.001
	l0.012-0.079c0.011-0.076,0.022-0.08,0.245-0.1c0.354-0.031,0.988-0.123,1.012-0.146c0.025-0.025,0.004-0.569-0.036-2.107
	c-0.032-1.223,0.021-4.479-0.021-4.627l-0.026-0.09l-0.082,0.181c-0.141,0.31-0.939,1.64-1.887,3.675
	c-0.95,2.037-1.32,2.973-1.392,3.111l-0.045,0.088l-0.038-0.072c-0.048-0.092-1.037-2.686-2.069-5.186
	c-0.436-1.055-0.98-1.922-0.987-1.93c-0.027-0.029,0.03-0.006,0.053,1.559c0.023,1.629-0.089,2.605-0.097,3.766
	c-0.005,0.695-0.078,1.6-0.045,1.633c0.012,0.012,0.294,0.057,0.627,0.099c0.594,0.075,0.605,0.077,0.625,0.151l0.021,0.076h-1.498
	C228.591,79.952,228.33,79.945,228.343,79.912z"/>
<path id="path4316" sodipodi:nodetypes="ccccccsssssssssssscccssssssssssssssssssc" d="M370.246,80.918
	c0.109-0.754,0.164-1.516,0.188-2.59l0.02-0.963l0.107,0.037l0.108,0.037l0.019,0.387c0.03,0.664,0.048,0.764,0.171,0.973
	c0.144,0.242,0.512,0.588,0.773,0.725c0.349,0.182,0.606,0.246,0.985,0.246c0.388-0.001,0.621-0.055,0.939-0.213
	c0.666-0.334,0.98-1.08,0.783-1.852c-0.139-0.541-0.424-0.845-1.424-1.514c-0.885-0.592-1.22-0.848-1.512-1.16
	c-0.614-0.656-0.757-1.449-0.393-2.182c0.209-0.422,0.495-0.707,0.916-0.916c0.402-0.199,0.641-0.248,1.213-0.248
	c0.549,0,0.965,0.066,1.305,0.209c0.098,0.041,0.201,0.082,0.227,0.09c0.041,0.014,0.064-0.066,0.146-0.48l0.1-0.496l0.102-0.02
	c0.057-0.011,0.107-0.014,0.113-0.008s-0.016,0.207-0.047,0.445c-0.098,0.738-0.178,1.58-0.197,2.091
	c-0.018,0.454-0.022,0.486-0.074,0.472c-0.182-0.051-0.166-0.012-0.18-0.488c-0.018-0.564-0.066-0.688-0.408-1.023
	c-0.254-0.249-0.492-0.386-0.818-0.469c-0.229-0.06-0.797-0.044-1.02,0.027c-0.639,0.205-0.988,0.68-0.947,1.287
	c0.039,0.566,0.312,0.849,1.666,1.725c0.721,0.467,1.022,0.697,1.308,0.998c0.36,0.381,0.56,0.745,0.646,1.188
	c0.055,0.277,0.022,0.866-0.061,1.131c-0.287,0.907-1.033,1.506-2.099,1.682c-0.527,0.088-1.399,0.017-1.958-0.158
	c-0.129-0.041-0.238-0.07-0.243-0.064c-0.005,0.005-0.058,0.252-0.12,0.549c-0.141,0.68-0.127,0.635-0.205,0.656
	C370.238,81.063,370.227,81.053,370.246,80.918z"/>
<path id="path4328" sodipodi:nodetypes="csssssssssccssssssc" d="M313.783,80.087c-1.099-0.134-1.906-0.508-2.595-1.202
	c-0.609-0.615-0.943-1.235-1.089-2.021c-0.08-0.433-0.072-1.255,0.016-1.666c0.191-0.889,0.565-1.575,1.211-2.223
	c1.083-1.086,2.456-1.538,4.212-1.387c0.696,0.061,1.268,0.213,1.801,0.479c1.133,0.567,1.853,1.482,2.108,2.68
	c0.063,0.293,0.071,1.002,0.016,1.389c-0.309,2.178-1.946,3.715-4.221,3.965C314.857,80.143,314.188,80.137,313.783,80.087z
	 M315.782,79.625c1.439-0.23,2.449-1.219,2.768-2.705c0.089-0.418,0.097-1.193,0.016-1.58c-0.351-1.657-1.606-2.924-3.256-3.284
	c-0.401-0.087-1.25-0.08-1.679,0.015c-1.76,0.392-2.777,1.649-2.777,3.436c0,1.492,0.948,2.996,2.35,3.724
	C314.019,79.652,314.835,79.778,315.782,79.625z"/>
<path id="path4378" d="M431.668,79.957c0-0.008,0.012-0.047,0.027-0.086c0.025-0.066,0.049-0.074,0.292-0.092
	c0.388-0.03,0.857-0.109,0.901-0.151c0.12-0.115,0.131-7.3,0.012-7.42c-0.025-0.025-0.576-0.113-0.992-0.159
	c-0.193-0.02-0.238-0.046-0.24-0.133c0-0.039,0.314-0.045,2.657-0.045c2.767,0.001,2.784,0.002,3.595,0.137
	c0.994,0.166,1.666,0.475,2.247,1.029c0.302,0.289,0.475,0.525,0.631,0.859c0.232,0.498,0.308,1.016,0.242,1.658
	c-0.169,1.639-1.114,2.948-2.665,3.691c-0.842,0.404-1.705,0.613-2.84,0.691C435.102,79.968,431.668,79.984,431.668,79.957z
	 M436.129,79.549c1.158-0.123,2.258-0.614,2.98-1.331c0.449-0.444,0.773-0.997,0.934-1.593c0.073-0.271,0.079-0.339,0.079-0.893
	c0-0.553-0.006-0.621-0.079-0.898c-0.096-0.355-0.319-0.822-0.525-1.094c-0.792-1.045-2.179-1.529-4.406-1.537
	c-0.387-0.002-0.807,0.008-0.933,0.021l-0.229,0.025l-0.017,0.109c-0.01,0.061-0.033,0.905-0.053,1.877
	c-0.027,1.354-0.027,2.137-0.001,3.354c0.019,0.872,0.043,1.635,0.052,1.695c0.021,0.126,0.061,0.143,0.521,0.223
	C434.982,79.598,435.528,79.611,436.129,79.549z"/>
<path id="path4432" d="M273.918,79.672c0.01-0.04,0.021-0.074,0.023-0.074c0.002-0.002,0.317-0.035,0.698-0.076
	s0.702-0.084,0.714-0.096c0.012-0.012,0.029-0.371,0.039-0.798c0.024-0.993,0.023-5.325,0-5.919l-0.018-0.452l-0.67,0.003
	c-0.921,0.004-1.589,0.072-2.108,0.217c-0.275,0.076-0.378,0.131-0.411,0.216c-0.014,0.038-0.054,0.224-0.087,0.413
	c-0.119,0.67-0.11,0.645-0.211,0.679c-0.05,0.018-0.094,0.028-0.098,0.024s0.017-0.27,0.046-0.59c0.068-0.75,0.116-1.51,0.116-1.858
	v-0.276l0.095,0.02l0.095,0.02l0.019,0.271c0.01,0.148,0.027,0.314,0.037,0.366l0.018,0.095l0.254,0.02
	c1.502,0.107,5.906,0.104,7.026-0.008l0.19-0.018l0.064-0.264c0.035-0.143,0.065-0.296,0.066-0.338
	c0.001-0.055,0.021-0.082,0.068-0.094c0.122-0.033,0.172-0.023,0.156,0.031c-0.028,0.095-0.133,0.889-0.237,1.799
	c-0.056,0.495-0.108,0.906-0.115,0.912c-0.006,0.007-0.05,0.004-0.098-0.007l-0.086-0.019l0.004-0.633l0.004-0.632l-0.189-0.063
	c-0.414-0.137-1.449-0.264-2.408-0.291l-0.586-0.019l-0.023,0.493c-0.029,0.638-0.029,4.594,0,5.784l0.023,0.923l0.077,0.015
	c0.042,0.009,0.365,0.044,0.718,0.081c0.353,0.035,0.643,0.065,0.646,0.066c0.003,0.002,0.013,0.036,0.023,0.076l0.018,0.072h-1.955
	h-1.955L273.918,79.672z"/>
<path id="path4482" d="M413.586,79.758c-1.148-0.176-1.968-0.854-2.328-1.926c-0.188-0.563-0.188-0.543-0.213-3.109
	c-0.012-1.286-0.031-2.381-0.043-2.431c-0.023-0.103-0.029-0.104-0.573-0.197c-0.282-0.048-0.329-0.069-0.329-0.155
	c-0.001-0.039,0.188-0.043,1.52-0.043c1.334,0,1.521,0.004,1.521,0.043c0,0.023-0.01,0.057-0.021,0.073s-0.277,0.065-0.592,0.106
	c-0.313,0.041-0.576,0.082-0.584,0.09c-0.033,0.033-0.068,2.063-0.057,3.174c0.016,1.275,0.037,1.537,0.181,2.091
	c0.308,1.19,1.052,1.874,2.124,1.952c0.599,0.045,1.147-0.045,1.586-0.258c0.504-0.243,0.888-0.773,1.047-1.445
	c0.084-0.354,0.104-0.586,0.123-1.406c0.016-0.753-0.026-4.08-0.053-4.105c-0.016-0.016-0.723-0.119-0.986-0.145
	c-0.185-0.018-0.205-0.025-0.23-0.096l-0.029-0.074h1.426h1.426l-0.025,0.074c-0.025,0.07-0.053,0.08-0.404,0.15
	c-0.207,0.041-0.386,0.09-0.396,0.108c-0.038,0.062-0.063,1.501-0.048,2.724c0.017,1.307-0.003,1.758-0.095,2.246
	c-0.278,1.477-1.246,2.395-2.711,2.572C414.477,79.813,413.906,79.807,413.586,79.758z"/>
<path id="path4485" d="M251.606,79.82c0.019-0.072,0.046-0.08,0.454-0.145c0.647-0.102,0.576-0.057,0.755-0.476
	c0.241-0.562,0.62-1.522,1.14-2.884c0.562-1.471,1.657-4.398,1.672-4.465c0.008-0.037-0.084-0.063-0.457-0.123
	c-0.257-0.041-0.469-0.076-0.471-0.077s-0.012-0.038-0.021-0.081l-0.019-0.077h1.603h1.603l-0.009,0.077
	c-0.009,0.076-0.026,0.081-0.445,0.15c-0.239,0.041-0.444,0.082-0.455,0.094c-0.011,0.012,0.095,0.379,0.236,0.814
	c0.752,2.332,1.867,5.293,2.497,6.635l0.142,0.303l0.173,0.035c0.095,0.02,0.327,0.059,0.515,0.088
	c0.32,0.047,0.344,0.056,0.363,0.129l0.021,0.077l-1.753,0.001c-0.965,0-1.754-0.012-1.754-0.025c0-0.104,0.067-0.139,0.302-0.16
	c0.324-0.027,0.862-0.111,0.91-0.141c0.028-0.018-0.034-0.236-0.233-0.83c-0.325-0.965-0.746-2.168-0.886-2.529l-0.101-0.262
	l-0.72,0.021c-0.721,0.021-1.55,0.063-1.972,0.1l-0.226,0.02l-0.154,0.487c-0.464,1.462-0.836,2.921-0.762,2.989
	c0.033,0.031,0.656,0.158,0.775,0.158c0.057,0,0.088,0.022,0.11,0.08c0.017,0.043,0.031,0.082,0.031,0.085s-0.649,0.006-1.442,0.006
	h-1.442L251.606,79.82z M257.302,75.67c0-0.055-0.807-2.383-1.09-3.146l-0.195-0.525l-0.054,0.105c-0.081,0.158-0.37,0.9-0.745,1.91
	c-0.46,1.238-0.573,1.569-0.547,1.596c0.012,0.013,0.466,0.031,1.008,0.041c0.542,0.009,1.129,0.02,1.305,0.022
	C257.159,75.676,257.302,75.676,257.302,75.67z"/>
<path id="path4487" sodipodi:nodetypes="cssssscccsscccssssc" d="M293.229,79.928c0-0.004,0.013-0.041,0.029-0.083
	c0.024-0.063,0.049-0.077,0.142-0.078c0.167-0.003,1.048-0.132,1.074-0.159c0.083-0.082,0.089-7.328,0.006-7.412
	c-0.016-0.016-0.231-0.048-1.04-0.158c-0.14-0.02-0.165-0.033-0.183-0.097l-0.02-0.075h1.743c1.729,0,1.743,0.001,1.725,0.061
	c-0.01,0.033-0.026,0.068-0.037,0.08c-0.011,0.01-0.284,0.057-0.607,0.101l-0.588,0.081l-0.024,0.168
	c-0.032,0.22-0.03,6.73,0.001,7.031c0.029,0.275-0.042,0.24,0.692,0.333c0.54,0.067,0.562,0.075,0.58,0.198
	c0.001,0.008-0.784,0.015-1.746,0.015C294.016,79.933,293.229,79.93,293.229,79.928z"/>
<path id="path4489" d="M390.918,79.672c0.01-0.04,0.021-0.074,0.023-0.074c0.002-0.002,0.316-0.035,0.697-0.076
	s0.701-0.084,0.713-0.096s0.03-0.371,0.041-0.798c0.023-0.993,0.022-5.325-0.001-5.919l-0.019-0.452l-0.67,0.003
	c-0.921,0.004-1.588,0.072-2.108,0.217c-0.274,0.076-0.378,0.131-0.411,0.216c-0.014,0.038-0.053,0.224-0.087,0.413
	c-0.118,0.67-0.11,0.645-0.211,0.679c-0.05,0.018-0.095,0.028-0.099,0.024s0.018-0.27,0.047-0.59c0.068-0.75,0.116-1.51,0.116-1.858
	v-0.276l0.095,0.02l0.095,0.02l0.019,0.271c0.011,0.148,0.027,0.314,0.037,0.366l0.018,0.095l0.255,0.02
	c1.502,0.107,5.907,0.104,7.026-0.008l0.19-0.018l0.063-0.264c0.035-0.143,0.065-0.296,0.066-0.338
	c0.002-0.055,0.021-0.082,0.068-0.094c0.121-0.033,0.172-0.023,0.155,0.031c-0.028,0.095-0.133,0.889-0.237,1.799
	c-0.057,0.495-0.107,0.906-0.113,0.912c-0.008,0.007-0.051,0.004-0.099-0.007l-0.086-0.019l0.004-0.633l0.004-0.632l-0.189-0.063
	c-0.415-0.137-1.449-0.264-2.407-0.291l-0.587-0.019l-0.022,0.493c-0.03,0.638-0.031,4.594-0.001,5.784l0.023,0.923l0.077,0.015
	c0.043,0.009,0.365,0.044,0.718,0.081c0.353,0.035,0.643,0.065,0.646,0.066c0.002,0.002,0.014,0.036,0.023,0.076l0.018,0.072h-1.955
	h-1.954L390.918,79.672z"/>
<path id="path4491" sodipodi:nodetypes="csssssssssccssssssc" d="M474.783,80.087c-1.099-0.134-1.906-0.508-2.594-1.202
	c-0.609-0.615-0.944-1.235-1.09-2.021c-0.08-0.433-0.072-1.255,0.016-1.666c0.191-0.889,0.564-1.575,1.211-2.223
	c1.082-1.086,2.455-1.538,4.213-1.387c0.695,0.061,1.268,0.213,1.801,0.479c1.132,0.567,1.852,1.482,2.107,2.68
	c0.063,0.293,0.07,1.002,0.016,1.389c-0.309,2.178-1.945,3.715-4.221,3.965C475.857,80.143,475.188,80.137,474.783,80.087z
	 M476.783,79.625c1.438-0.23,2.448-1.219,2.767-2.705c0.089-0.418,0.097-1.193,0.015-1.58c-0.35-1.657-1.605-2.924-3.255-3.284
	c-0.401-0.087-1.25-0.08-1.679,0.015c-1.76,0.392-2.777,1.649-2.777,3.436c0,1.492,0.949,2.996,2.35,3.724
	C475.018,79.652,475.835,79.778,476.783,79.625z"/>
<path id="path4493" sodipodi:nodetypes="cssssscccsscccssssc" d="M454.229,79.928c0-0.004,0.014-0.041,0.029-0.083
	c0.024-0.063,0.049-0.077,0.143-0.078c0.167-0.003,1.049-0.132,1.074-0.159c0.084-0.082,0.09-7.328,0.006-7.412
	c-0.016-0.016-0.231-0.048-1.04-0.158c-0.14-0.02-0.165-0.033-0.183-0.097l-0.02-0.075h1.742c1.729,0,1.743,0.001,1.726,0.061
	c-0.01,0.033-0.026,0.068-0.037,0.08c-0.011,0.01-0.284,0.057-0.607,0.101l-0.589,0.081l-0.023,0.168
	c-0.031,0.22-0.03,6.73,0.002,7.031c0.028,0.275-0.043,0.24,0.691,0.333c0.541,0.067,0.563,0.075,0.58,0.198
	c0.001,0.008-0.785,0.015-1.746,0.015S454.229,79.93,454.229,79.928z"/>
<path id="path4495" sodipodi:nodetypes="ccccccsssssssssssscccssssssssssssssssssc" d="M493.781,80.918
	c0.11-0.754,0.165-1.516,0.188-2.59l0.021-0.963l0.107,0.037l0.107,0.037l0.018,0.387c0.031,0.664,0.049,0.764,0.172,0.973
	c0.143,0.242,0.512,0.588,0.773,0.725c0.348,0.182,0.606,0.246,0.984,0.246c0.389-0.001,0.622-0.055,0.94-0.213
	c0.665-0.334,0.981-1.08,0.784-1.852c-0.139-0.541-0.425-0.845-1.424-1.514c-0.887-0.592-1.221-0.848-1.513-1.16
	c-0.614-0.656-0.757-1.449-0.394-2.182c0.209-0.422,0.496-0.707,0.916-0.916c0.403-0.199,0.641-0.248,1.215-0.248
	c0.548,0,0.963,0.066,1.303,0.209c0.1,0.041,0.201,0.082,0.229,0.09c0.039,0.014,0.063-0.066,0.146-0.48l0.098-0.496l0.103-0.02
	c0.056-0.011,0.106-0.014,0.113-0.008c0.006,0.006-0.015,0.207-0.047,0.445c-0.099,0.738-0.179,1.58-0.198,2.091
	c-0.017,0.454-0.021,0.486-0.073,0.472c-0.181-0.051-0.167-0.012-0.181-0.488c-0.016-0.564-0.065-0.688-0.407-1.023
	c-0.253-0.249-0.492-0.386-0.817-0.469c-0.23-0.06-0.798-0.044-1.021,0.027c-0.639,0.205-0.988,0.68-0.946,1.287
	c0.038,0.566,0.312,0.849,1.666,1.725c0.722,0.467,1.022,0.697,1.308,0.998c0.361,0.381,0.559,0.745,0.645,1.188
	c0.055,0.277,0.023,0.866-0.061,1.131c-0.285,0.907-1.033,1.506-2.098,1.682c-0.527,0.088-1.4,0.017-1.959-0.158
	c-0.129-0.041-0.238-0.07-0.242-0.064c-0.004,0.005-0.059,0.252-0.119,0.549c-0.142,0.68-0.127,0.635-0.205,0.656
	C493.774,81.063,493.762,81.053,493.781,80.918z"/>
</svg>
