<svg fill="none" height="1037" viewBox="0 .43 82.01455466 28.57" width="2500" xmlns="http://www.w3.org/2000/svg"><path d="m23.04 7.361h3.467c.319 0 .577.26.577.577v18.178a.577.577 0 0 1 -.577.577h-3.466a.577.577 0 0 1 -.577-.577v-18.178c0-.319.258-.577.577-.577zm21.451 9.83a.288.288 0 0 1 0-.33l6.334-9.046a.289.289 0 0 0 -.236-.454h-4.186c-.565 0-1.094.276-1.419.738l-4.554 6.505a.288.288 0 0 1 -.472 0l-4.555-6.505a1.732 1.732 0 0 0 -1.419-.738h-4.184a.289.289 0 0 0 -.236.454l6.333 9.045c.07.1.07.232 0 .331l-6.335 9.048a.289.289 0 0 0 .236.454h4.186c.565 0 1.094-.276 1.418-.738l4.557-6.507a.288.288 0 0 1 .472 0l4.556 6.507c.324.463.854.738 1.419.738h4.186c.233 0 .37-.262.236-.454zm-44.491 11.232c0 .319.259.577.578.577h3.466a.577.577 0 0 0 .577-.577v-3.153a9.664 9.664 0 0 0 14.707-8.244 9.664 9.664 0 0 0 -15.67-7.569l-1.177-1.83a.577.577 0 0 0 -.486-.265h-1.418a.577.577 0 0 0 -.577.577zm9.665-6.355a5.043 5.043 0 1 1 0-10.086 5.043 5.043 0 0 1 0 10.086zm15.109-17.018a2.31 2.31 0 1 0 0-4.62 2.31 2.31 0 0 0 0 4.62zm29.098 2.311h3.467c.319 0 .577.26.577.577v18.178a.577.577 0 0 1 -.577.577h-3.467a.577.577 0 0 1 -.577-.577v-18.178c0-.319.259-.577.577-.577zm1.733-2.311a2.31 2.31 0 1 0 0-4.62 2.31 2.31 0 0 0 0 4.62zm21.15 3.422-5.437 14.166a.288.288 0 0 1 -.539 0l-5.438-14.166a1.732 1.732 0 0 0 -1.616-1.11h-3.34a.288.288 0 0 0 -.27.39l7.129 18.57c.086.223.3.37.538.37h6.532a.576.576 0 0 0 .538-.37l7.129-18.57a.288.288 0 0 0 -.27-.39h-3.34c-.716 0-1.36.441-1.616 1.11z" fill="#0096fa"/></svg>